<svg width="20" height="20" viewBox="0 0 20 20" fill="none" xmlns="http://www.w3.org/2000/svg">
<path d="M10 18.9999C9.355 18.4279 8.626 17.8329 7.85502 17.1999H7.84502C5.13002 14.9799 2.05302 12.4679 0.694021 9.4579C0.247541 8.4996 0.0109314 7.45702 1.13924e-05 6.3999C-0.00296861 4.94938 0.578791 3.55888 1.61383 2.54266C2.64887 1.52644 4.04981 0.970294 5.50002 0.999904C6.68065 1.00176 7.83586 1.34298 8.828 1.9829C9.264 2.26586 9.6584 2.60815 10 2.9999C10.3435 2.60969 10.7381 2.2676 11.173 1.9829C12.1648 1.34285 13.3197 1.00161 14.5 0.999904C15.9502 0.970294 17.3512 1.52644 18.3862 2.54266C19.4213 3.55888 20.003 4.94938 20 6.3999C19.9898 7.45871 19.7532 8.5031 19.306 9.4629C17.947 12.4729 14.871 14.9839 12.156 17.1999L12.146 17.2079C11.374 17.8369 10.646 18.4319 10.001 19.0079L10 18.9999ZM5.50002 2.9999C4.56853 2.98824 3.6701 3.34474 3.00002 3.9919C2.35441 4.62606 1.99358 5.49494 1.99994 6.3999C2.01135 7.1704 2.18585 7.92975 2.51202 8.6279C3.15353 9.9266 4.01913 11.1019 5.06902 12.0999C6.06002 13.0999 7.20002 14.0679 8.186 14.8819C8.459 15.1069 8.737 15.3339 9.015 15.5609L9.19 15.7039C9.457 15.9219 9.733 16.1479 10 16.3699L10.013 16.3579L10.019 16.3529H10.025L10.034 16.3459H10.039H10.044L10.062 16.3309L10.103 16.2979L10.11 16.2919L10.121 16.2839H10.127L10.136 16.2759L10.8 15.7309L10.974 15.5879C11.255 15.3589 11.533 15.1319 11.806 14.9069C12.792 14.0929 13.933 13.1259 14.924 12.1209C15.9741 11.1235 16.8397 9.9484 17.481 8.6499C17.8131 7.9457 17.9901 7.1784 18.0001 6.3999C18.0042 5.49773 17.6435 4.63219 17 3.9999C16.3312 3.34982 15.4326 2.99038 14.5 2.9999C13.3619 2.99022 12.274 3.46726 11.51 4.3109L10 6.0509L8.49 4.3109C7.72609 3.46726 6.6381 2.99022 5.50002 2.9999Z" fill="white"/>
</svg>
