<svg width="24" height="24" viewBox="0 0 24 24" fill="none" xmlns="http://www.w3.org/2000/svg">
<mask id="mask0_72_6457" style="mask-type:alpha" maskUnits="userSpaceOnUse" x="0" y="0" width="24" height="24">
<rect width="24" height="24" fill="#C4C4C4"/>
</mask>
<g mask="url(#mask0_72_6457)">
<path fill-rule="evenodd" clip-rule="evenodd" d="M12 0C11.4477 0 11 0.447716 11 1V8.45181L0.766658 10.91C0.22965 11.039 -0.101108 11.5789 0.0278895 12.1159C0.156887 12.6529 0.696791 12.9837 1.2338 12.8547L4.90289 11.9733L4.83301 12.1024L1.48969 18.2768C0.922769 19.3238 1.02866 20.607 1.75954 21.5469L2.02434 21.8874C4.03499 24.4731 7.94729 24.4594 9.93982 21.8597L10.1844 21.5407C10.903 20.6031 11.0045 19.3312 10.4437 18.2915L7.10639 12.1042L6.79113 11.5197L17.3395 8.98587L17.2764 9.10239L13.933 15.2768C13.3661 16.3238 13.472 17.607 14.2029 18.5469L14.4677 18.8874C16.4784 21.4731 20.3906 21.4594 22.3832 18.8597L22.6277 18.5407C23.3463 17.6031 23.4478 16.3312 22.8871 15.2915L19.5497 9.10423L19.2397 8.5294L23.1814 7.58255C23.7184 7.45355 24.0492 6.91364 23.9202 6.37664C23.7912 5.83963 23.2513 5.50887 22.7142 5.63787L13 7.97138V1C13 0.447715 12.5523 0 12 0ZM5.968 14.2066L3.24841 19.2291C3.05944 19.5781 3.09474 20.0059 3.33836 20.3192L3.60316 20.6597C4.80955 22.2111 7.15693 22.2029 8.35245 20.6431L8.59699 20.324C8.83652 20.0115 8.87036 19.5875 8.68344 19.241L5.968 14.2066ZM15.6918 16.2291L18.4114 11.2066L21.1268 16.241C21.3137 16.5875 21.2799 17.0115 21.0403 17.324L20.7958 17.6431C19.6003 19.2029 17.2529 19.2111 16.0465 17.6597L15.7817 17.3192C15.5381 17.0059 15.5028 16.5781 15.6918 16.2291Z" fill="white"/>
</g>
</svg>
