<svg width="29" height="28" viewBox="0 0 29 28" fill="none" xmlns="http://www.w3.org/2000/svg">
<g opacity="0.5">
<circle cx="14.2265" cy="13.9106" r="13.9106" fill="url(#paint0_linear_12486_2286)"/>
<path d="M18.804 8.34627H10.3452C9.39023 8.34627 8.6626 9.0739 8.6626 10.0289V18.4876C8.6626 19.4427 9.39023 20.1703 10.3452 20.1703H18.804C19.759 20.1703 20.4866 19.4427 20.4866 18.4876V10.0289C20.4866 9.0739 19.759 8.34627 18.804 8.34627ZM14.5746 17.8055C16.5301 17.8055 18.1218 16.2593 18.1218 14.3947C18.1218 14.0764 18.0763 13.7126 17.9854 13.4397H18.9859V18.2603C18.9859 18.4876 18.804 18.715 18.5311 18.715H10.6181C10.3907 18.715 10.1633 18.5331 10.1633 18.2603V13.3942H11.2093C11.1184 13.7126 11.0729 14.0309 11.0729 14.3492C11.0274 16.2593 12.6191 17.8055 14.5746 17.8055ZM14.5746 16.4412C13.3013 16.4412 12.3008 15.4407 12.3008 14.2128C12.3008 12.9849 13.3013 11.9844 14.5746 11.9844C15.848 11.9844 16.8485 12.9849 16.8485 14.2128C16.8485 15.4862 15.848 16.4412 14.5746 16.4412ZM18.9404 11.5751C18.9404 11.848 18.713 12.0754 18.4402 12.0754H17.1668C16.8939 12.0754 16.6666 11.848 16.6666 11.5751V10.3473C16.6666 10.0744 16.8939 9.84701 17.1668 9.84701H18.4402C18.713 9.84701 18.9404 10.0744 18.9404 10.3473V11.5751Z" fill="white"/>
</g>
<defs>
<linearGradient id="paint0_linear_12486_2286" x1="6.22793" y1="24.6913" x2="24.6595" y2="5.56425" gradientUnits="userSpaceOnUse">
<stop stop-color="#EEA054"/>
<stop offset="0.502762" stop-color="#D64763"/>
<stop offset="1" stop-color="#B62A99"/>
</linearGradient>
</defs>
</svg>
