<svg width="28" height="28" viewBox="0 0 28 28" fill="none" xmlns="http://www.w3.org/2000/svg">
<g opacity="0.5">
<circle cx="13.9106" cy="13.9106" r="13.9106" fill="#2F89CE"/>
<path d="M6.50369 14.1707L9.70181 15.3632L10.9485 19.3744C11.0027 19.6454 11.328 19.6996 11.5448 19.537L13.3335 18.0735C13.4962 17.9109 13.7672 17.9109 13.984 18.0735L17.1821 20.4043C17.3989 20.5669 17.7242 20.4585 17.7784 20.1875L20.1634 8.80438C20.2176 8.53336 19.9466 8.26233 19.6756 8.37074L6.50369 13.466C6.17846 13.5744 6.17846 14.0623 6.50369 14.1707ZM10.7859 14.767L17.0737 10.9184C17.1821 10.8642 17.2905 11.0268 17.1821 11.081L12.0326 15.9053C11.87 16.0679 11.7074 16.2847 11.7074 16.5557L11.5448 17.8567C11.5448 18.0193 11.2738 18.0735 11.2195 17.8567L10.5691 15.4716C10.4065 15.2006 10.5149 14.8754 10.7859 14.767Z" fill="white"/>
</g>
</svg>
