<svg width="29" height="28" viewBox="0 0 29 28" fill="none" xmlns="http://www.w3.org/2000/svg">
<g opacity="0.5">
<circle cx="14.3628" cy="13.9106" r="13.9106" fill="#7C509A"/>
<path d="M18.7123 7.3351C16.0613 6.82883 13.3083 6.82883 10.6573 7.3351C9.48471 7.58823 8.00626 9.00578 7.75135 10.1196C7.29252 12.2965 7.29252 14.5241 7.75135 16.701C8.05724 17.8148 9.5357 19.2324 10.6573 19.4855C10.7083 19.4855 10.7592 19.5361 10.7592 19.5867V22.7762C10.7592 22.9281 10.9632 23.0294 11.0651 22.8775L12.5946 21.3081C12.5946 21.3081 13.8181 20.0424 14.0221 19.8399C14.0221 19.8399 14.073 19.7893 14.124 19.7893C15.6535 19.8399 17.2339 19.688 18.7633 19.4349C19.9359 19.1817 21.4143 17.7642 21.6692 16.6504C22.1281 14.4735 22.1281 12.2459 21.6692 10.0689C21.3634 9.00578 19.8849 7.58823 18.7123 7.3351ZM18.7633 16.8529C18.5084 17.3592 18.2025 17.7642 17.6927 18.0173C17.5398 18.0679 17.3868 18.1186 17.2339 18.1692C17.0299 18.1186 16.877 18.0679 16.7241 18.0173C15.0927 17.3592 13.5632 16.4479 12.3397 15.1316C11.6769 14.3722 11.1161 13.5115 10.6573 12.6003C10.4534 12.1446 10.2494 11.7396 10.0965 11.284C9.94355 10.879 10.1985 10.4739 10.4534 10.1702C10.7083 9.86643 11.0142 9.66392 11.371 9.51204C11.6259 9.36016 11.8808 9.46142 12.0848 9.66392C12.4926 10.1702 12.9005 10.6765 13.2064 11.2333C13.4103 11.5877 13.3593 11.9927 13.0024 12.2459C12.9005 12.2965 12.8495 12.3471 12.7475 12.4484C12.6965 12.499 12.5946 12.5496 12.5436 12.6509C12.4416 12.8028 12.4416 12.9547 12.4926 13.1065C12.9005 14.2709 13.6652 15.1822 14.8378 15.6885C15.0417 15.7897 15.1946 15.8404 15.4495 15.8404C15.8064 15.7897 15.9593 15.3847 16.2142 15.1822C16.4692 14.9797 16.775 14.9797 17.0809 15.1316C17.3358 15.2835 17.5907 15.486 17.8966 15.6885C18.1515 15.891 18.4064 16.0429 18.6613 16.2454C18.8143 16.3466 18.8653 16.5998 18.7633 16.8529ZM16.6221 13.0559C16.5201 13.0559 16.5711 13.0559 16.6221 13.0559C16.4182 13.0559 16.3672 12.9547 16.3162 12.8028C16.3162 12.7015 16.3162 12.5496 16.2652 12.4484C16.2142 12.2459 16.1123 12.0434 15.9084 11.8915C15.8064 11.8409 15.7044 11.7902 15.6025 11.7396C15.4495 11.689 15.3476 11.689 15.1946 11.689C15.0417 11.6384 14.9907 11.5371 14.9907 11.3852C14.9907 11.284 15.1436 11.1827 15.2456 11.1827C16.0613 11.2333 16.6731 11.689 16.775 12.6509C16.775 12.7015 16.775 12.8028 16.775 12.8534C16.775 12.9547 16.7241 13.0559 16.6221 13.0559ZM16.1123 10.8283C15.8574 10.7271 15.6025 10.6258 15.2966 10.5752C15.1946 10.5752 15.0417 10.5246 14.9397 10.5246C14.7868 10.5246 14.6848 10.4233 14.7358 10.2714C14.7358 10.1196 14.8378 10.0183 14.9907 10.0689C15.5005 10.1196 15.9593 10.2208 16.4182 10.4233C17.3358 10.879 17.8457 11.6384 17.9986 12.6509C17.9986 12.7015 17.9986 12.7521 17.9986 12.8028C17.9986 12.904 17.9986 13.0053 17.9986 13.1572C17.9986 13.2078 17.9986 13.2584 17.9986 13.309C17.9476 13.5115 17.5907 13.5622 17.5398 13.309C17.5398 13.2584 17.4888 13.1572 17.4888 13.1065C17.4888 12.6509 17.3868 12.1953 17.1829 11.7902C16.877 11.3346 16.5201 11.0308 16.1123 10.8283ZM18.8653 13.8659C18.7123 13.8659 18.6104 13.7141 18.6104 13.5622C18.6104 13.2584 18.5594 12.9547 18.5084 12.6509C18.3045 11.0308 16.979 9.71455 15.3985 9.46142C15.1436 9.41079 14.8887 9.41079 14.6848 9.36016C14.5319 9.36016 14.3279 9.36016 14.277 9.15766C14.226 9.00578 14.3789 8.8539 14.5319 8.8539C14.5828 8.8539 14.6338 8.8539 14.6338 8.8539C14.7358 8.8539 16.7241 8.90452 14.6338 8.8539C16.775 8.90452 18.5594 10.3221 18.9163 12.4484C18.9672 12.8028 19.0182 13.1572 19.0182 13.5622C19.1202 13.7141 19.0182 13.8659 18.8653 13.8659Z" fill="white"/>
</g>
</svg>
