<svg width="29" height="28" viewBox="0 0 29 28" fill="none" xmlns="http://www.w3.org/2000/svg">
<g opacity="0.5">
<circle cx="14.5005" cy="13.9106" r="13.9106" fill="#48C95F"/>
<path d="M20.0136 8.38981C18.6395 7.02049 16.8074 6.25975 14.8734 6.25975C10.8529 6.25975 7.59581 9.50556 7.59581 13.5121C7.59581 14.78 7.95206 16.0479 8.56277 17.1129L7.54492 20.8659L11.4128 19.8516C12.4815 20.4095 13.652 20.7137 14.8734 20.7137C18.8939 20.7137 22.1511 17.4679 22.1511 13.4614C22.1002 11.5849 21.3877 9.75914 20.0136 8.38981ZM18.385 16.0986C18.2323 16.5043 17.5198 16.9101 17.1636 16.9608C16.8582 17.0115 16.4511 17.0115 16.044 16.9101C15.7895 16.8086 15.4333 16.7072 15.0261 16.5043C13.194 15.7436 12.0235 13.9178 11.9217 13.7657C11.8199 13.6643 11.1583 12.8021 11.1583 11.8892C11.1583 10.9763 11.6163 10.5706 11.769 10.3677C11.9217 10.1649 12.1252 10.1649 12.2779 10.1649C12.3797 10.1649 12.5324 10.1649 12.6342 10.1649C12.736 10.1649 12.8886 10.1141 13.0413 10.4692C13.194 10.8242 13.5502 11.7371 13.6011 11.7878C13.652 11.8892 13.652 11.9906 13.6011 12.0921C13.5502 12.1935 13.4993 12.2949 13.3976 12.3964C13.2958 12.4978 13.194 12.6499 13.1431 12.7007C13.0413 12.8021 12.9395 12.9035 13.0413 13.0557C13.1431 13.2585 13.4993 13.8164 14.0592 14.3236C14.7717 14.9321 15.3315 15.135 15.535 15.2364C15.7386 15.3379 15.8404 15.2872 15.9422 15.1857C16.044 15.0843 16.4002 14.6786 16.502 14.4757C16.6038 14.2728 16.7565 14.3236 16.9091 14.3743C17.0618 14.425 17.9779 14.8814 18.1306 14.9829C18.3341 15.0843 18.4359 15.135 18.4868 15.1857C18.5377 15.3379 18.5377 15.6929 18.385 16.0986Z" fill="white"/>
</g>
</svg>
