<svg width="100" height="101" viewBox="0 0 100 101" fill="none" xmlns="http://www.w3.org/2000/svg">
<rect width="100" height="101" rx="50" fill="#242628"/>
<path d="M25.4844 25.875V60H24.2188V25.875H25.4844ZM47.0938 25.875L31.8359 41.2266L24.9688 47.5547L25.1562 45.9141L31.0625 40.1484L45.2656 25.875H47.0938ZM46.625 60L30.5469 41.6016L31.3203 40.5L48.2656 60H46.625ZM55.9531 25.875V60H54.6875V25.875H55.9531ZM77.5625 25.875L62.3047 41.2266L55.4375 47.5547L55.625 45.9141L61.5312 40.1484L75.7344 25.875H77.5625ZM77.0938 60L61.0156 41.6016L61.7891 40.5L78.7344 60H77.0938ZM34.8633 74.5918C34.8633 74.1426 34.7852 73.7422 34.6289 73.3906C34.4727 73.0391 34.222 72.7233 33.877 72.4434C33.5319 72.1634 33.0794 71.9062 32.5195 71.6719C31.9661 71.4375 31.2858 71.2096 30.4785 70.9883C29.7559 70.793 29.1048 70.5846 28.5254 70.3633C27.946 70.1354 27.4512 69.875 27.041 69.582C26.6374 69.2891 26.3281 68.9408 26.1133 68.5371C25.8984 68.127 25.791 67.6354 25.791 67.0625C25.791 66.5221 25.9082 66.0371 26.1426 65.6074C26.3835 65.1777 26.7155 64.8132 27.1387 64.5137C27.5684 64.2142 28.0697 63.9863 28.6426 63.8301C29.2155 63.6673 29.8372 63.5859 30.5078 63.5859C31.4323 63.5859 32.2493 63.7617 32.959 64.1133C33.6686 64.4648 34.2253 64.9564 34.6289 65.5879C35.0391 66.2129 35.2441 66.9453 35.2441 67.7852H34.7168C34.7168 67.082 34.541 66.4538 34.1895 65.9004C33.8379 65.347 33.3464 64.9108 32.7148 64.5918C32.0898 64.2728 31.3542 64.1133 30.5078 64.1133C29.6159 64.1133 28.8574 64.25 28.2324 64.5234C27.6074 64.7969 27.1322 65.1582 26.8066 65.6074C26.4811 66.0501 26.3184 66.5286 26.3184 67.043C26.3184 67.4206 26.3835 67.7721 26.5137 68.0977C26.6504 68.4232 26.8783 68.7259 27.1973 69.0059C27.5163 69.2793 27.9557 69.5397 28.5156 69.7871C29.0755 70.028 29.7786 70.2591 30.625 70.4805C31.3281 70.6628 31.9694 70.8678 32.5488 71.0957C33.1348 71.3236 33.6393 71.5938 34.0625 71.9062C34.4922 72.2188 34.821 72.5931 35.0488 73.0293C35.2832 73.459 35.4004 73.9733 35.4004 74.5723C35.4004 75.1517 35.2734 75.666 35.0195 76.1152C34.7721 76.5645 34.4271 76.9453 33.9844 77.2578C33.5417 77.5638 33.0273 77.7982 32.4414 77.9609C31.862 78.1172 31.2402 78.1953 30.5762 78.1953C29.9707 78.1953 29.3587 78.1237 28.7402 77.9805C28.1217 77.8372 27.5553 77.6061 27.041 77.2871C26.5267 76.9616 26.1133 76.5286 25.8008 75.9883C25.4883 75.4479 25.332 74.7806 25.332 73.9863H25.8594C25.8594 74.696 26.0059 75.2884 26.2988 75.7637C26.5918 76.2389 26.9727 76.6165 27.4414 76.8965C27.9167 77.1699 28.4277 77.3685 28.9746 77.4922C29.528 77.6094 30.0618 77.668 30.5762 77.668C31.4095 77.668 32.1484 77.5378 32.793 77.2773C33.4375 77.0169 33.9421 76.6556 34.3066 76.1934C34.6777 75.7311 34.8633 75.1973 34.8633 74.5918ZM48.0176 70.4219V70.9492H38.4473V70.4219H48.0176ZM38.7109 63.7812V78H38.1836V63.7812H38.7109ZM48.3203 63.7812V78H47.793V63.7812H48.3203ZM62.2949 69.8262V71.9551C62.2949 72.8796 62.168 73.7259 61.9141 74.4941C61.6667 75.2559 61.3086 75.9134 60.8398 76.4668C60.3776 77.0202 59.8177 77.4466 59.1602 77.7461C58.5026 78.0456 57.7637 78.1953 56.9434 78.1953C56.1296 78.1953 55.3906 78.0456 54.7266 77.7461C54.069 77.4466 53.5026 77.0202 53.0273 76.4668C52.5586 75.9134 52.1973 75.2559 51.9434 74.4941C51.696 73.7259 51.5723 72.8796 51.5723 71.9551V69.8262C51.5723 68.8952 51.696 68.0488 51.9434 67.2871C52.1973 66.5254 52.5586 65.8678 53.0273 65.3145C53.4961 64.7611 54.0592 64.3346 54.7168 64.0352C55.3743 63.7357 56.11 63.5859 56.9238 63.5859C57.7441 63.5859 58.4831 63.7357 59.1406 64.0352C59.7982 64.3346 60.3613 64.7611 60.8301 65.3145C61.3053 65.8678 61.6667 66.5254 61.9141 67.2871C62.168 68.0488 62.2949 68.8952 62.2949 69.8262ZM61.7676 71.9551V69.8066C61.7676 68.9733 61.6602 68.2116 61.4453 67.5215C61.2305 66.8249 60.9147 66.2227 60.498 65.7148C60.0814 65.207 59.5736 64.8132 58.9746 64.5332C58.3757 64.2533 57.6921 64.1133 56.9238 64.1133C56.1621 64.1133 55.4818 64.2533 54.8828 64.5332C54.2904 64.8132 53.7858 65.207 53.3691 65.7148C52.959 66.2227 52.6465 66.8249 52.4316 67.5215C52.2168 68.2116 52.1094 68.9733 52.1094 69.8066V71.9551C52.1094 72.7949 52.2168 73.5632 52.4316 74.2598C52.653 74.9564 52.9688 75.5586 53.3789 76.0664C53.7956 76.5742 54.3034 76.9681 54.9023 77.248C55.5013 77.528 56.1816 77.668 56.9434 77.668C57.7116 77.668 58.3919 77.528 58.9844 77.248C59.5833 76.9681 60.0879 76.5742 60.498 76.0664C60.9147 75.5586 61.2305 74.9564 61.4453 74.2598C61.6602 73.5632 61.7676 72.7949 61.7676 71.9551ZM69.9902 71.9941H65.6738V71.4668H69.9902C70.9473 71.4668 71.7253 71.3105 72.3242 70.998C72.9232 70.679 73.3594 70.2526 73.6328 69.7188C73.9128 69.1849 74.0527 68.5957 74.0527 67.9512C74.0527 67.2806 73.9128 66.6719 73.6328 66.125C73.3594 65.5716 72.9232 65.1322 72.3242 64.8066C71.7253 64.4746 70.9473 64.3086 69.9902 64.3086H66.0742V78H65.5469V63.7812H69.9902C70.9993 63.7812 71.8424 63.9538 72.5195 64.2988C73.2031 64.6439 73.7174 65.1289 74.0625 65.7539C74.4076 66.3724 74.5801 67.0983 74.5801 67.9316C74.5801 68.765 74.4076 69.4876 74.0625 70.0996C73.724 70.7051 73.2129 71.1738 72.5293 71.5059C71.8522 71.8314 71.0059 71.9941 69.9902 71.9941Z" fill="white"/>
</svg>
