<svg width="21" height="21" viewBox="0 0 21 21" fill="none" xmlns="http://www.w3.org/2000/svg">
<path fill-rule="evenodd" clip-rule="evenodd" d="M14.687 14.9171C13.3399 16.2073 11.5125 17 9.5 17C5.35786 17 2 13.6421 2 9.5C2 5.35786 5.35786 2 9.5 2C13.6421 2 17 5.35786 17 9.5C17 11.5124 16.2074 13.3397 14.9174 14.6867C14.8738 14.718 14.8321 14.7533 14.7929 14.7925C14.7537 14.8318 14.7184 14.8735 14.687 14.9171ZM15.4735 16.8874C13.8416 18.2086 11.7632 19 9.5 19C4.25329 19 0 14.7467 0 9.5C0 4.25329 4.25329 0 9.5 0C14.7467 0 19 4.25329 19 9.5C19 11.7631 18.2087 13.8413 16.8877 15.4731L20.7071 19.2929C21.0976 19.6835 21.0976 20.3166 20.7071 20.7071C20.3165 21.0976 19.6834 21.0976 19.2929 20.7071L15.4735 16.8874Z" fill="black" fill-opacity="0.8"/>
</svg>
