<svg width="18" height="21" viewBox="0 0 18 21" fill="none" xmlns="http://www.w3.org/2000/svg">
<path opacity="0.8" fill-rule="evenodd" clip-rule="evenodd" d="M6.99996 5V4C6.99996 2.89543 7.89539 2 8.99996 2C10.1045 2 11 2.89543 11 4V5H6.99996ZM4.99996 5V4C4.99996 1.79086 6.79082 0 8.99996 0C11.2091 0 13 1.79086 13 4V5H15.3308C15.849 5 16.2813 5.39576 16.3269 5.91187L17.373 17.7356C17.5282 19.49 16.1459 21 14.3847 21H3.61449C1.85328 21 0.47095 19.49 0.626162 17.7356L1.67224 5.91187C1.7179 5.39576 2.15022 5 2.66835 5H4.99996ZM13 7H11H6.99996H4.99996H3.58378L2.61838 17.9119C2.56664 18.4967 3.02742 19 3.61449 19H14.3847C14.9718 19 15.4325 18.4967 15.3808 17.9119L14.4154 7H13Z" fill="black"/>
</svg>
