<svg width="21" height="22" viewBox="0 0 21 22" fill="none" xmlns="http://www.w3.org/2000/svg">
<path d="M2.21106 20.8724C2.21106 22.3759 0 22.3759 0 20.8724C0 16.4503 2.74171 12.7357 6.54472 11.1437C5.12965 9.99397 4.24523 8.22513 4.24523 6.2794C4.24523 2.83015 6.98693 0 10.5246 0C13.9739 0 16.7156 2.83015 16.7156 6.2794C16.7156 8.22513 15.8312 9.99397 14.4161 11.1437C18.2191 12.7357 20.9608 16.4503 20.9608 20.8724C20.9608 22.3759 18.7498 22.3759 18.7498 20.8724C18.7498 16.3618 15.0352 12.6472 10.5246 12.6472C5.92563 12.6472 2.21106 16.3618 2.21106 20.8724ZM10.5246 2.21106C8.22513 2.21106 6.45628 4.06834 6.45628 6.2794C6.45628 8.49045 8.22513 10.2593 10.5246 10.2593C12.7357 10.2593 14.5045 8.49045 14.5045 6.2794C14.5045 4.06834 12.7357 2.21106 10.5246 2.21106Z" fill="black" fill-opacity="0.8"/>
</svg>
